# xmcd
#
# Track frame offsets: 
#        150
#        16433
#        29875
#        50725
#        73413
#        91625
#        114253
#        130563
#        151360
#        168070
#        185520
#        201075
#
# Disc length: 3020 seconds
#
# Revision: 1
# Processed by: cddbd v1.5.2PL0 Copyright (c) Steve Scherf et al.
# Submitted via: ExactAudioCopy v0.99pb5
#
DISCID=9e0bca0c
DTITLE=Various Artist - Surrounded By Nature In Easy Listening POPs
DYEAR=1900
DGENRE=Pop
TTITLE0=I JUST CAN'T STOP LOVING YOU
TTITLE1=TAKE MY BREATH AWAY
TTITLE2=IMAGINE
TTITLE3=ON THE BEACH
TTITLE4=STAY WITH ME
TTITLE5=YOU CAN HAVE ME ANYTIME
TTITLE6=STAND BY ME
TTITLE7=BALLERINA GIRL
TTITLE8=KILLNG ME SOFTLY WITH HIS SONG
TTITLE9=IF WE HOLD ON TOGETHER
TTITLE10=DON'T KNOW MUCH
TTITLE11=UP WHERE WE BELONG
EXTD=
EXTT0=
EXTT1=
EXTT2=
EXTT3=
EXTT4=
EXTT5=
EXTT6=
EXTT7=
EXTT8=
EXTT9=
EXTT10=
EXTT11=
PLAYORDER=
